<?xml version="1.0" encoding="UTF-8" standalone="no"?>
<svg
   fill="#DDDDDD"
   viewBox="0 0 50 50"
   width="50px"
   height="50px"
   version="1.1"
   id="svg4"
   sodipodi:docname="xml.svg"
   inkscape:version="1.2.2 (b0a8486541, 2022-12-01)"
   xmlns:inkscape="http://www.inkscape.org/namespaces/inkscape"
   xmlns:sodipodi="http://sodipodi.sourceforge.net/DTD/sodipodi-0.dtd"
   xmlns="http://www.w3.org/2000/svg"
   xmlns:svg="http://www.w3.org/2000/svg">
  <defs
     id="defs8" />
  <sodipodi:namedview
     id="namedview6"
     pagecolor="#ffffff"
     bordercolor="#000000"
     borderopacity="0.25"
     inkscape:showpageshadow="2"
     inkscape:pageopacity="0.0"
     inkscape:pagecheckerboard="0"
     inkscape:deskcolor="#d1d1d1"
     showgrid="false"
     inkscape:zoom="16.46"
     inkscape:cx="25.030377"
     inkscape:cy="25.060753"
     inkscape:window-width="1920"
     inkscape:window-height="1015"
     inkscape:window-x="0"
     inkscape:window-y="0"
     inkscape:window-maximized="1"
     inkscape:current-layer="svg4" />
  <path
     d="M 44.089844 4 L 5.910156 4 C 4.804688 4 4 4.804688 4 5.910156 L 4 44.089844 C 4 45.195313 4.804688 46 5.910156 46 L 44.089844 46 C 45.195313 46 46 45.195313 46 44.089844 L 46 5.910156 C 46 4.804688 45.195313 4 44.089844 4 Z M 18.460938 30 L 17.8125 28.140625 C 17.621094 27.554688 17.453125 26.984375 17.273438 26.339844 L 17.246094 26.339844 C 17.078125 26.984375 16.914063 27.601563 16.765625 28.171875 L 16.226563 30 L 14.277344 30 L 16.164063 24.824219 L 14.351563 19.890625 L 16.40625 19.890625 L 16.992188 21.765625 C 17.15625 22.289063 17.292969 22.816406 17.457031 23.382813 L 17.488281 23.382813 C 17.652344 22.769531 17.769531 22.289063 17.90625 21.734375 L 18.417969 19.890625 L 20.382813 19.890625 L 18.492188 24.914063 L 20.484375 30 Z M 27.652344 30 L 27.472656 26.460938 C 27.429688 25.5 27.355469 24.195313 27.382813 23.113281 L 27.339844 23.113281 C 27.160156 24.195313 26.890625 25.441406 26.695313 26.21875 L 25.824219 29.835938 L 24.429688 29.835938 L 23.589844 26.277344 C 23.394531 25.46875 23.125 24.210938 22.976563 23.113281 L 22.929688 23.113281 C 22.902344 24.210938 22.839844 25.484375 22.78125 26.488281 L 22.613281 30 L 20.921875 30 L 21.65625 19.890625 L 23.722656 19.890625 L 24.535156 23.550781 C 24.820313 24.824219 25.074219 25.949219 25.253906 27.089844 L 25.285156 27.089844 C 25.433594 25.964844 25.660156 24.824219 25.929688 23.550781 L 26.726563 19.890625 L 28.796875 19.890625 L 29.410156 30 Z M 35.410156 30 L 30.847656 30 L 30.847656 19.890625 L 32.8125 19.890625 L 32.8125 28.335938 L 35.410156 28.335938 Z"
     id="path2"
     style="stroke:none;stroke-opacity:1;fill:#478cfb;fill-opacity:1" />
</svg>
