<svg xmlns="http://www.w3.org/2000/svg" xmlns:xlink="http://www.w3.org/1999/xlink" xml:space="preserve" width="256" height="256" viewBox="-7 0 192 192"><rect width="124" height="124" x="27.159" y="35.945" fill="#363d52" stroke="#212532" stroke-linejoin="bevel" stroke-width="4" rx="14"/><g id="a"><path fill="#478cbf" d="M13.708 73.082c0 14.441 18.319 21.381 41.078 21.461h.056c22.76-.08 41.073-7.02 41.073-21.46l.004-31.484h.056c2.014-2.57 3.878-5.28 5.666-8.17-2.374-4.042-5.283-7.653-8.392-11a82 82 0 0 0-8.33 4.846c-1.324-1.315-2.815-2.392-4.28-3.517-1.438-1.155-3.06-2.003-4.597-2.99.458-3.41.684-6.767.775-10.27-3.968-1.998-8.2-3.322-12.48-4.273-1.71 2.872-3.273 5.983-4.634 9.023-1.614-.27-3.235-.37-4.859-.389h-.062c-1.627.02-3.247.12-4.862.39-1.36-3.041-2.922-6.152-4.634-9.024h.002c-4.278.951-8.51 2.275-12.478 4.272.09 3.504.317 6.861.776 10.271-1.541.987-3.16 1.835-4.6 2.99-1.462 1.125-2.956 2.202-4.28 3.517a82 82 0 0 0-8.33-4.845c-3.109 3.346-6.016 6.958-8.39 10.999 1.786 2.89 3.651 5.6 5.665 8.17h.056c-.025 54.358 0 24.693 0 31.485z"/><path fill="#fff" d="M33.259 42.52c-5.059 0-9.162 4.098-9.162 9.158a9.163 9.163 0 1 0 18.326 0c0-5.06-4.103-9.158-9.164-9.158m43.112 0c-5.063 0-9.164 4.098-9.164 9.158a9.163 9.163 0 1 0 18.326 0c0-5.06-4.104-9.158-9.163-9.158m-21.556 5.396c-1.63 0-2.95 1.203-2.95 2.682v8.436c0 1.48 1.32 2.68 2.95 2.68s2.952-1.2 2.952-2.68v-8.436c0-1.479-1.323-2.682-2.952-2.682m-41.076 18.47a.1.1 0 0 1-.025.038l-.002.001h-.002l-.02 3.242 13.67 1.314.47 6.749a1.64 1.64 0 0 0 1.518 1.519l16.197 1.155a1.636 1.636 0 0 0 1.736-1.394l.928-6.299h13.217l.929 6.299a1.64 1.64 0 0 0 1.619 1.399h.117l16.198-1.156a1.64 1.64 0 0 0 1.516-1.519l.472-6.749 13.66-1.318-.02-3.242-.007-.04c-.044.002-.086.011-.13.011l-15.202 1.466a1.64 1.64 0 0 0-1.475 1.517l-.468 6.713-13.266.946-.914-6.196a1.64 1.64 0 0 0-1.62-1.397H46.793c-.813 0-1.502.594-1.62 1.397l-.914 6.196-13.264-.946-.47-6.713a1.64 1.64 0 0 0-1.476-1.516l-15.206-1.467a.5.5 0 0 0-.105-.01"/><path fill="#414042" d="M34.134 46.148a6.082 6.082 0 1 0 0 12.163 6.081 6.081 0 1 0 0-12.163m41.356 0a6.082 6.082 0 0 0 0 12.163 6.082 6.082 0 1 0 0-12.163"/></g><path id="b" fill="#363d52" stroke-width="1" d="M40.764 1026.7a2.6 2.6 0 0 0-.666.064c-4.332.963-8.688 2.318-12.83 4.402a2.77 2.77 0 0 0-1.525 2.55c.074 2.886.326 5.694.644 8.529-1.077.645-2.154 1.232-3.342 2.185-.845.65-1.788 1.473-2.71 2.236-2.15-1.349-4.32-2.692-6.62-3.85a2.77 2.77 0 0 0-3.279.59c-3.126 3.365-6.098 7.047-8.553 11.224a2.77 2.77 0 0 0 .034 2.863 91 91 0 0 0 5.172 7.459v29.805l65.644-63.592c-4.143-2.085-8.499-3.44-12.832-4.402a2.77 2.77 0 0 0-2.985 1.289c-1.4 2.353-2.602 4.855-3.764 7.326-1.035-.094-2.085-.238-3.088-.25h-.126c-1.005.012-2.057.155-3.092.25-1.115-2.373-2.277-4.765-3.615-7.035a3 3 0 0 0-.15-.293 2.77 2.77 0 0 0-2.317-1.354z" transform="translate(37.749 -1008.8)scale(1.0241)"/><use xlink:href="#a" transform="translate(34.141 39.215)"/><use xlink:href="#b" transform="translate(34.216 42.252)"/><use xlink:href="#a" transform="translate(68.356 81.471)"/></svg>