<svg height="16" viewBox="0 0 16 16" width="16" xmlns="http://www.w3.org/2000/svg"><linearGradient x2="0" y2="16" gradientUnits="userSpaceOnUse" id="a"><stop offset=".1875" stop-color="#ff2929"/><stop stop-color="#ffe337"/><stop offset=".3125" stop-color="#ffe337"/><stop stop-color="#74ff34"/><stop offset=".4375" stop-color="#74ff34"/><stop stop-color="#2cff98"/><stop offset=".5625" stop-color="#2cff98"/><stop stop-color="#22ccff"/><stop offset=".6875" stop-color="#22ccff"/><stop stop-color="#702aff"/><stop offset=".8125" stop-color="#702aff"/><stop stop-color="#ff2781"/></linearGradient><path d="M1.685 13a7 7 0 1 1 12.631 0zM3 10a1 1 0 0 0 0 2h1a1 1 0 0 0 0-2zm7 0a1 1 0 0 0 1-1h1a1 1 0 0 0 0-2h-2a1 1 0 0 0-1 1H8a1 1 0 0 0 0 2z" fill="url(#a)"/></svg>
