<svg height="16" viewBox="0 0 16 16" width="16" xmlns="http://www.w3.org/2000/svg"><linearGradient x2="0" y2="16" gradientUnits="userSpaceOnUse" id="a"><stop offset=".188" stop-color="#ff2929"/><stop stop-color="#ffe337"/><stop offset=".313" stop-color="#ffe337"/><stop stop-color="#74ff34"/><stop offset=".438" stop-color="#74ff34"/><stop stop-color="#2cff98"/><stop offset=".563" stop-color="#2cff98"/><stop stop-color="#22ccff"/><stop offset=".688" stop-color="#22ccff"/><stop stop-color="#702aff"/><stop offset=".813" stop-color="#702aff"/><stop stop-color="#ff2781"/></linearGradient><path d="M8 1c-.75 1.305-1.654 2.427-2.5 3.5-1 1.208-1.865 2.349-2.346 3.5-.24.57-.404 1.148-.404 1.75s.126 1.2.322 1.75C3.795 13.535 5.718 15 8 15s4.205-1.465 4.928-3.5c.196-.55.322-1.148.322-1.75s-.164-1.18-.404-1.75C12.365 6.849 11.5 5.708 10.5 4.5 9.654 3.427 8.753 2.305 8 1Z" fill="url(#a)"/></svg>
