<svg height="14" viewBox="0 0 14 14" width="14" xmlns="http://www.w3.org/2000/svg"><path d="M2 0a2 2 0 0 0-2 2v10a2 2 0 0 0 2 2h10a2 2 0 0 0 2-2V2a2 2 0 0 0-2-2z" fill="#414141"/><g fill-opacity=".4"><path d="M7 2a3 3 0 0 0-3 3 3 3 0 0 0 .21 1.106A3 3 0 0 0 2 9a3 3 0 0 0 3 3 3 3 0 0 0 2-.767A3 3 0 0 0 9 12a3 3 0 0 0 3-3 3 3 0 0 0-2.215-2.89A3 3 0 0 0 10 5a3 3 0 0 0-3-3z" fill="#414141"/><circle cx="7" cy="5" fill="#ff0000" r="3"/><circle cx="5" cy="9" fill="#0000ff" r="3"/><circle cx="9" cy="9" fill="#00ff00" r="3"/><circle cx="7" cy="5" fill="#ff0000" r="3"/><circle cx="5" cy="9" fill="#0000ff" r="3"/><circle cx="9" cy="9" fill="#00ff00" r="3"/></g></svg>
